solid 0
facet normal 0.42 0 0
outer loop
vertex 1.5 2.1 0
vertex 1.5 0.7 0.3
vertex 1.5 0.7 0
endloop
endfacet 
facet normal 0.42 -0 0
outer loop
vertex 1.5 0.7 0.3
vertex 1.5 2.1 0
vertex 1.5 2.1 0.3
endloop
endfacet 
facet normal 0 -0.39 -0
outer loop
vertex 2.8 2.1 0.3
vertex 1.5 2.1 0
vertex 2.8 2.1 0
endloop
endfacet 
facet normal 0 -0.39 0
outer loop
vertex 1.5 2.1 0
vertex 2.8 2.1 0.3
vertex 1.5 2.1 0.3
endloop
endfacet 
facet normal 0 0 0.0699999
outer loop
vertex 2.8 1.4 0.3
vertex 2.9 1.5 0.3
vertex 2.8 2.1 0.3
endloop
endfacet 
facet normal 0 0 0.15
outer loop
vertex 2.9 1.5 0.3
vertex 2.8 1.4 0.3
vertex 4.3 1.4 0.3
endloop
endfacet 
facet normal -0 0 0.01
outer loop
vertex 2.8 2.1 0.3
vertex 2.9 1.5 0.3
vertex 2.8 2.2 0.3
endloop
endfacet 
facet normal -0 0 0.0599999
outer loop
vertex 2.8 2.2 0.3
vertex 2.9 1.5 0.3
vertex 2.8 2.8 0.3
endloop
endfacet 
facet normal -0 0 0.14
outer loop
vertex 2.9 1.5 0.3
vertex 4.3 1.4 0.3
vertex 4.3 1.5 0.3
endloop
endfacet 
facet normal 0 0 0.08
outer loop
vertex 0.7 2.8 0.3
vertex 0.8 2.9 0.3
vertex 0.7 3.6 0.3
endloop
endfacet 
facet normal 0 0 0.21
outer loop
vertex 0.8 2.9 0.3
vertex 0.7 2.8 0.3
vertex 2.8 2.8 0.3
endloop
endfacet 
facet normal -0 0 0.21
outer loop
vertex 0.8 2.9 0.3
vertex 2.8 2.8 0.3
vertex 2.9 2.9 0.3
endloop
endfacet 
facet normal 0 0 0.14
outer loop
vertex 2.9 2.9 0.3
vertex 2.8 2.8 0.3
vertex 2.9 1.5 0.3
endloop
endfacet 
facet normal 0 0 0.07
outer loop
vertex 1.5 0.7 0.3
vertex 1.4 1.4 0.3
vertex 1.4 0.7 0.3
endloop
endfacet 
facet normal -0 0 0.01
outer loop
vertex 1.4 1.4 0.3
vertex 1.5 0.7 0.3
vertex 1.4 1.5 0.3
endloop
endfacet 
facet normal -0 0 0.07
outer loop
vertex 1.4 1.5 0.3
vertex 1.5 0.7 0.3
vertex 1.4 2.2 0.3
endloop
endfacet 
facet normal 0 0 0.14
outer loop
vertex 1.4 2.2 0.3
vertex 1.5 0.7 0.3
vertex 1.5 2.1 0.3
endloop
endfacet 
facet normal -0 0 0.14
outer loop
vertex 1.4 2.2 0.3
vertex 1.5 2.1 0.3
vertex 2.8 2.2 0.3
endloop
endfacet 
facet normal 0 0 0.13
outer loop
vertex 2.8 2.2 0.3
vertex 1.5 2.1 0.3
vertex 2.8 2.1 0.3
endloop
endfacet 
facet normal 0 0 0.08
outer loop
vertex 0.7 1.4 0.3
vertex 0.8 1.5 0.3
vertex 0.7 2.2 0.3
endloop
endfacet 
facet normal 0 0 0.07
outer loop
vertex 0.8 1.5 0.3
vertex 0.7 1.4 0.3
vertex 1.4 1.4 0.3
endloop
endfacet 
facet normal -0 0 0.06
outer loop
vertex 0.8 1.5 0.3
vertex 1.4 1.4 0.3
vertex 1.4 1.5 0.3
endloop
endfacet 
facet normal 0 0 0.07
outer loop
vertex 0.8 3.6 0.3
vertex 0.7 3.6 0.3
vertex 0.8 2.9 0.3
endloop
endfacet 
facet normal 0 0 0.07
outer loop
vertex 0.8 2.2 0.3
vertex 0.7 2.2 0.3
vertex 0.8 1.5 0.3
endloop
endfacet 
facet normal 0 -0.03 -0
outer loop
vertex 1.5 0.7 0.3
vertex 1.4 0.7 0
vertex 1.5 0.7 0
endloop
endfacet 
facet normal 0 -0.03 0
outer loop
vertex 1.4 0.7 0
vertex 1.5 0.7 0.3
vertex 1.4 0.7 0.3
endloop
endfacet 
facet normal -0.21 -0 0
outer loop
vertex 2.8 2.1 0.3
vertex 2.8 1.4 0
vertex 2.8 1.4 0.3
endloop
endfacet 
facet normal -0.21 0 0
outer loop
vertex 2.8 1.4 0
vertex 2.8 2.1 0.3
vertex 2.8 2.1 0
endloop
endfacet 
facet normal 0 -0.45 -0
outer loop
vertex 4.3 1.4 0.3
vertex 2.8 1.4 0
vertex 4.3 1.4 0
endloop
endfacet 
facet normal 0 -0.45 0
outer loop
vertex 2.8 1.4 0
vertex 4.3 1.4 0.3
vertex 2.8 1.4 0.3
endloop
endfacet 
facet normal 0.03 0 0
outer loop
vertex 4.3 1.5 0
vertex 4.3 1.4 0.3
vertex 4.3 1.4 0
endloop
endfacet 
facet normal 0.03 -0 0
outer loop
vertex 4.3 1.4 0.3
vertex 4.3 1.5 0
vertex 4.3 1.5 0.3
endloop
endfacet 
facet normal 0 0.42 0
outer loop
vertex 2.9 1.5 0.3
vertex 4.3 1.5 0
vertex 2.9 1.5 0
endloop
endfacet 
facet normal 0 0.42 -0
outer loop
vertex 4.3 1.5 0
vertex 2.9 1.5 0.3
vertex 4.3 1.5 0.3
endloop
endfacet 
facet normal 0.42 0 0
outer loop
vertex 2.9 2.9 0
vertex 2.9 1.5 0.3
vertex 2.9 1.5 0
endloop
endfacet 
facet normal 0.42 -0 0
outer loop
vertex 2.9 1.5 0.3
vertex 2.9 2.9 0
vertex 2.9 2.9 0.3
endloop
endfacet 
facet normal 0 0.63 0
outer loop
vertex 0.8 2.9 0.3
vertex 2.9 2.9 0
vertex 0.8 2.9 0
endloop
endfacet 
facet normal 0 0.63 -0
outer loop
vertex 2.9 2.9 0
vertex 0.8 2.9 0.3
vertex 2.9 2.9 0.3
endloop
endfacet 
facet normal 0.21 0 0
outer loop
vertex 0.8 3.6 0
vertex 0.8 2.9 0.3
vertex 0.8 2.9 0
endloop
endfacet 
facet normal 0.21 -0 0
outer loop
vertex 0.8 2.9 0.3
vertex 0.8 3.6 0
vertex 0.8 3.6 0.3
endloop
endfacet 
facet normal 0 0.03 0
outer loop
vertex 0.7 3.6 0.3
vertex 0.8 3.6 0
vertex 0.7 3.6 0
endloop
endfacet 
facet normal 0 0.03 -0
outer loop
vertex 0.8 3.6 0
vertex 0.7 3.6 0.3
vertex 0.8 3.6 0.3
endloop
endfacet 
facet normal -0.24 -0 0
outer loop
vertex 0.7 3.6 0.3
vertex 0.7 2.8 0
vertex 0.7 2.8 0.3
endloop
endfacet 
facet normal -0.24 0 0
outer loop
vertex 0.7 2.8 0
vertex 0.7 3.6 0.3
vertex 0.7 3.6 0
endloop
endfacet 
facet normal 0 -0.63 -0
outer loop
vertex 2.8 2.8 0.3
vertex 0.7 2.8 0
vertex 2.8 2.8 0
endloop
endfacet 
facet normal 0 -0.63 0
outer loop
vertex 0.7 2.8 0
vertex 2.8 2.8 0.3
vertex 0.7 2.8 0.3
endloop
endfacet 
facet normal -0.18 -0 0
outer loop
vertex 2.8 2.8 0.3
vertex 2.8 2.2 0
vertex 2.8 2.2 0.3
endloop
endfacet 
facet normal -0.18 0 0
outer loop
vertex 2.8 2.2 0
vertex 2.8 2.8 0.3
vertex 2.8 2.8 0
endloop
endfacet 
facet normal 0 0.42 0
outer loop
vertex 1.4 2.2 0.3
vertex 2.8 2.2 0
vertex 1.4 2.2 0
endloop
endfacet 
facet normal 0 0.42 -0
outer loop
vertex 2.8 2.2 0
vertex 1.4 2.2 0.3
vertex 2.8 2.2 0.3
endloop
endfacet 
facet normal -0.21 -0 0
outer loop
vertex 1.4 2.2 0.3
vertex 1.4 1.5 0
vertex 1.4 1.5 0.3
endloop
endfacet 
facet normal -0.21 0 0
outer loop
vertex 1.4 1.5 0
vertex 1.4 2.2 0.3
vertex 1.4 2.2 0
endloop
endfacet 
facet normal 0 0.18 0
outer loop
vertex 0.8 1.5 0.3
vertex 1.4 1.5 0
vertex 0.8 1.5 0
endloop
endfacet 
facet normal 0 0.18 -0
outer loop
vertex 1.4 1.5 0
vertex 0.8 1.5 0.3
vertex 1.4 1.5 0.3
endloop
endfacet 
facet normal 0.21 0 0
outer loop
vertex 0.8 2.2 0
vertex 0.8 1.5 0.3
vertex 0.8 1.5 0
endloop
endfacet 
facet normal 0.21 -0 0
outer loop
vertex 0.8 1.5 0.3
vertex 0.8 2.2 0
vertex 0.8 2.2 0.3
endloop
endfacet 
facet normal 0 0.03 0
outer loop
vertex 0.7 2.2 0.3
vertex 0.8 2.2 0
vertex 0.7 2.2 0
endloop
endfacet 
facet normal 0 0.03 -0
outer loop
vertex 0.8 2.2 0
vertex 0.7 2.2 0.3
vertex 0.8 2.2 0.3
endloop
endfacet 
facet normal -0.24 -0 0
outer loop
vertex 0.7 2.2 0.3
vertex 0.7 1.4 0
vertex 0.7 1.4 0.3
endloop
endfacet 
facet normal -0.24 0 0
outer loop
vertex 0.7 1.4 0
vertex 0.7 2.2 0.3
vertex 0.7 2.2 0
endloop
endfacet 
facet normal 0 -0.21 -0
outer loop
vertex 1.4 1.4 0.3
vertex 0.7 1.4 0
vertex 1.4 1.4 0
endloop
endfacet 
facet normal 0 -0.21 0
outer loop
vertex 0.7 1.4 0
vertex 1.4 1.4 0.3
vertex 0.7 1.4 0.3
endloop
endfacet 
facet normal -0.21 -0 0
outer loop
vertex 1.4 1.4 0.3
vertex 1.4 0.7 0
vertex 1.4 0.7 0.3
endloop
endfacet 
facet normal -0.21 0 0
outer loop
vertex 1.4 0.7 0
vertex 1.4 1.4 0.3
vertex 1.4 1.4 0
endloop
endfacet 
facet normal 0 -0.21 -0
outer loop
vertex 4.9 0.7 0.3
vertex 4.2 0.7 0
vertex 4.9 0.7 0
endloop
endfacet 
facet normal 0 -0.21 0
outer loop
vertex 4.2 0.7 0
vertex 4.9 0.7 0.3
vertex 4.2 0.7 0.3
endloop
endfacet 
facet normal -0 0 -0.07
outer loop
vertex 0.8 0.8 0
vertex 0.7 0.1 0
vertex 0.7 0.8 0
endloop
endfacet 
facet normal -0 0 -0.0699996
outer loop
vertex 5 5 0
vertex 4.9 4.3 0
vertex 4.9 5 0
endloop
endfacet 
facet normal 0 0 -0.00999993
outer loop
vertex 4.9 4.3 0
vertex 5 5 0
vertex 4.9 4.2 0
endloop
endfacet 
facet normal 0 0 -0.129999
outer loop
vertex 4.9 4.2 0
vertex 5 5 0
vertex 4.9 2.9 0
endloop
endfacet 
facet normal 0 0 -0.00999993
outer loop
vertex 4.9 2.9 0
vertex 5 5 0
vertex 4.9 2.8 0
endloop
endfacet 
facet normal 0 0 -0.199999
outer loop
vertex 4.9 2.8 0
vertex 5 5 0
vertex 4.9 0.8 0
endloop
endfacet 
facet normal 0 0 -0.00999994
outer loop
vertex 4.9 0.8 0
vertex 5 5 0
vertex 4.9 0.7 0
endloop
endfacet 
facet normal 0 0 -0.0599997
outer loop
vertex 4.9 0.7 0
vertex 5 5 0
vertex 4.9 0.1 0
endloop
endfacet 
facet normal 0 -0 -0.5
outer loop
vertex 0.1 0.1 0
vertex 5 0 0
vertex 0 0 0
endloop
endfacet 
facet normal 0 0 -0.06
outer loop
vertex 5 0 0
vertex 0.1 0.1 0
vertex 0.7 0.1 0
endloop
endfacet 
facet normal 0 0 -0.00999999
outer loop
vertex 5 0 0
vertex 0.7 0.1 0
vertex 0.8 0.1 0
endloop
endfacet 
facet normal 0 0 -0.07
outer loop
vertex 0.8 0.1 0
vertex 0.7 0.1 0
vertex 0.8 0.8 0
endloop
endfacet 
facet normal 0 0 -0.41
outer loop
vertex 5 0 0
vertex 0.8 0.1 0
vertex 4.9 0.1 0
endloop
endfacet 
facet normal 0 0 -0.499997
outer loop
vertex 5 0 0
vertex 4.9 0.1 0
vertex 5 5 0
endloop
endfacet 
facet normal -0 0 -0.07
outer loop
vertex 4.9 0.8 0
vertex 4.2 0.7 0
vertex 4.2 0.8 0
endloop
endfacet 
facet normal 0 0 -0.07
outer loop
vertex 4.2 0.7 0
vertex 4.9 0.8 0
vertex 4.9 0.7 0
endloop
endfacet 
facet normal -0 0 -0.0799999
outer loop
vertex 4.3 3.6 0
vertex 4.2 2.8 0
vertex 4.2 3.6 0
endloop
endfacet 
facet normal 0 0 -0.0699999
outer loop
vertex 4.2 2.8 0
vertex 4.3 3.6 0
vertex 4.3 2.9 0
endloop
endfacet 
facet normal 0 0 -0.07
outer loop
vertex 4.2 2.8 0
vertex 4.3 2.9 0
vertex 4.9 2.8 0
endloop
endfacet 
facet normal 0 0 -0.06
outer loop
vertex 4.9 2.8 0
vertex 4.3 2.9 0
vertex 4.9 2.9 0
endloop
endfacet 
facet normal -0 0 -0.14
outer loop
vertex 4.9 4.3 0
vertex 3.5 4.2 0
vertex 3.5 4.3 0
endloop
endfacet 
facet normal 0 0 -0.14
outer loop
vertex 3.5 4.2 0
vertex 4.9 4.3 0
vertex 4.9 4.2 0
endloop
endfacet 
facet normal -0 0 -0.5
outer loop
vertex 0.1 5 0
vertex 0 0 0
vertex 0 5 0
endloop
endfacet 
facet normal 0 0 -0.49
outer loop
vertex 0 0 0
vertex 0.1 5 0
vertex 0.1 0.1 0
endloop
endfacet 
facet normal -0.18 -0 0
outer loop
vertex 4.9 0.7 0.3
vertex 4.9 0.1 0
vertex 4.9 0.1 0.3
endloop
endfacet 
facet normal -0.18 0 0
outer loop
vertex 4.9 0.1 0
vertex 4.9 0.7 0.3
vertex 4.9 0.7 0
endloop
endfacet 
facet normal 0 0 0.5
outer loop
vertex 0 0 0.3
vertex 0.1 0.1 0.3
vertex 0 5 0.3
endloop
endfacet 
facet normal 0 0 0.5
outer loop
vertex 0.1 0.1 0.3
vertex 0 0 0.3
vertex 5 0 0.3
endloop
endfacet 
facet normal -0 0 0.06
outer loop
vertex 0.1 0.1 0.3
vertex 5 0 0.3
vertex 0.7 0.1 0.3
endloop
endfacet 
facet normal -0 0 0.01
outer loop
vertex 0.7 0.1 0.3
vertex 5 0 0.3
vertex 0.8 0.1 0.3
endloop
endfacet 
facet normal 0 0 0.07
outer loop
vertex 0.7 0.1 0.3
vertex 0.8 0.1 0.3
vertex 0.7 0.8 0.3
endloop
endfacet 
facet normal -0 0 0.41
outer loop
vertex 0.8 0.1 0.3
vertex 5 0 0.3
vertex 4.9 0.1 0.3
endloop
endfacet 
facet normal -0 0 0.0599997
outer loop
vertex 4.9 0.1 0.3
vertex 5 0 0.3
vertex 4.9 0.7 0.3
endloop
endfacet 
facet normal -0 0 0.00999994
outer loop
vertex 4.9 0.7 0.3
vertex 5 0 0.3
vertex 4.9 0.8 0.3
endloop
endfacet 
facet normal -0 0 0.199999
outer loop
vertex 4.9 0.8 0.3
vertex 5 0 0.3
vertex 4.9 2.8 0.3
endloop
endfacet 
facet normal -0 0 0.00999993
outer loop
vertex 4.9 2.8 0.3
vertex 5 0 0.3
vertex 4.9 2.9 0.3
endloop
endfacet 
facet normal -0 0 0.129999
outer loop
vertex 4.9 2.9 0.3
vertex 5 0 0.3
vertex 4.9 4.2 0.3
endloop
endfacet 
facet normal -0 0 0.00999993
outer loop
vertex 4.9 4.2 0.3
vertex 5 0 0.3
vertex 4.9 4.3 0.3
endloop
endfacet 
facet normal -0 0 0.0699996
outer loop
vertex 4.9 4.3 0.3
vertex 5 0 0.3
vertex 4.9 5 0.3
endloop
endfacet 
facet normal -0 0 0.499997
outer loop
vertex 4.9 5 0.3
vertex 5 0 0.3
vertex 5 5 0.3
endloop
endfacet 
facet normal 0 0 0.14
outer loop
vertex 4.9 4.2 0.3
vertex 3.5 4.3 0.3
vertex 3.5 4.2 0.3
endloop
endfacet 
facet normal -0 0 0.14
outer loop
vertex 3.5 4.3 0.3
vertex 4.9 4.2 0.3
vertex 4.9 4.3 0.3
endloop
endfacet 
facet normal 0 0 0.0799999
outer loop
vertex 4.2 2.8 0.3
vertex 4.3 2.9 0.3
vertex 4.2 3.6 0.3
endloop
endfacet 
facet normal 0 0 0.07
outer loop
vertex 4.3 2.9 0.3
vertex 4.2 2.8 0.3
vertex 4.9 2.8 0.3
endloop
endfacet 
facet normal -0 0 0.06
outer loop
vertex 4.3 2.9 0.3
vertex 4.9 2.8 0.3
vertex 4.9 2.9 0.3
endloop
endfacet 
facet normal 0 0 0.07
outer loop
vertex 4.9 0.7 0.3
vertex 4.2 0.8 0.3
vertex 4.2 0.7 0.3
endloop
endfacet 
facet normal -0 0 0.07
outer loop
vertex 4.2 0.8 0.3
vertex 4.9 0.7 0.3
vertex 4.9 0.8 0.3
endloop
endfacet 
facet normal 0 0 0.0699999
outer loop
vertex 4.3 3.6 0.3
vertex 4.2 3.6 0.3
vertex 4.3 2.9 0.3
endloop
endfacet 
facet normal 0 0 0.07
outer loop
vertex 0.8 0.8 0.3
vertex 0.7 0.8 0.3
vertex 0.8 0.1 0.3
endloop
endfacet 
facet normal 0 0 0.49
outer loop
vertex 0.1 5 0.3
vertex 0 5 0.3
vertex 0.1 0.1 0.3
endloop
endfacet 
facet normal -0.03 -0 0
outer loop
vertex 4.2 0.8 0.3
vertex 4.2 0.7 0
vertex 4.2 0.7 0.3
endloop
endfacet 
facet normal -0.03 0 0
outer loop
vertex 4.2 0.7 0
vertex 4.2 0.8 0.3
vertex 4.2 0.8 0
endloop
endfacet 
facet normal 0 0.18 0
outer loop
vertex 0.1 0.1 0.3
vertex 0.7 0.1 0
vertex 0.1 0.1 0
endloop
endfacet 
facet normal 0 0.18 -0
outer loop
vertex 0.7 0.1 0
vertex 0.1 0.1 0.3
vertex 0.7 0.1 0.3
endloop
endfacet 
facet normal -0.21 -0 0
outer loop
vertex 0.7 0.8 0.3
vertex 0.7 0.1 0
vertex 0.7 0.1 0.3
endloop
endfacet 
facet normal -0.21 0 0
outer loop
vertex 0.7 0.1 0
vertex 0.7 0.8 0.3
vertex 0.7 0.8 0
endloop
endfacet 
facet normal 0 0.03 0
outer loop
vertex 0.7 0.8 0.3
vertex 0.8 0.8 0
vertex 0.7 0.8 0
endloop
endfacet 
facet normal 0 0.03 -0
outer loop
vertex 0.8 0.8 0
vertex 0.7 0.8 0.3
vertex 0.8 0.8 0.3
endloop
endfacet 
facet normal 0.21 0 0
outer loop
vertex 0.8 0.8 0
vertex 0.8 0.1 0.3
vertex 0.8 0.1 0
endloop
endfacet 
facet normal 0.21 -0 0
outer loop
vertex 0.8 0.1 0.3
vertex 0.8 0.8 0
vertex 0.8 0.8 0.3
endloop
endfacet 
facet normal 0 1.23 0
outer loop
vertex 0.8 0.1 0.3
vertex 4.9 0.1 0
vertex 0.8 0.1 0
endloop
endfacet 
facet normal 0 1.23 -0
outer loop
vertex 4.9 0.1 0
vertex 0.8 0.1 0.3
vertex 4.9 0.1 0.3
endloop
endfacet 
facet normal 0 0.21 0
outer loop
vertex 4.2 0.8 0.3
vertex 4.9 0.8 0
vertex 4.2 0.8 0
endloop
endfacet 
facet normal 0 0.21 -0
outer loop
vertex 4.9 0.8 0
vertex 4.2 0.8 0.3
vertex 4.9 0.8 0.3
endloop
endfacet 
facet normal -0.6 -0 0
outer loop
vertex 4.9 2.8 0.3
vertex 4.9 0.8 0
vertex 4.9 0.8 0.3
endloop
endfacet 
facet normal -0.6 0 0
outer loop
vertex 4.9 0.8 0
vertex 4.9 2.8 0.3
vertex 4.9 2.8 0
endloop
endfacet 
facet normal 0 -0.21 -0
outer loop
vertex 4.9 2.8 0.3
vertex 4.2 2.8 0
vertex 4.9 2.8 0
endloop
endfacet 
facet normal 0 -0.21 0
outer loop
vertex 4.2 2.8 0
vertex 4.9 2.8 0.3
vertex 4.2 2.8 0.3
endloop
endfacet 
facet normal -0.24 -0 0
outer loop
vertex 4.2 3.6 0.3
vertex 4.2 2.8 0
vertex 4.2 2.8 0.3
endloop
endfacet 
facet normal -0.24 0 0
outer loop
vertex 4.2 2.8 0
vertex 4.2 3.6 0.3
vertex 4.2 3.6 0
endloop
endfacet 
facet normal 0 0.03 0
outer loop
vertex 4.2 3.6 0.3
vertex 4.3 3.6 0
vertex 4.2 3.6 0
endloop
endfacet 
facet normal 0 0.03 -0
outer loop
vertex 4.3 3.6 0
vertex 4.2 3.6 0.3
vertex 4.3 3.6 0.3
endloop
endfacet 
facet normal 0.21 0 0
outer loop
vertex 4.3 3.6 0
vertex 4.3 2.9 0.3
vertex 4.3 2.9 0
endloop
endfacet 
facet normal 0.21 -0 0
outer loop
vertex 4.3 2.9 0.3
vertex 4.3 3.6 0
vertex 4.3 3.6 0.3
endloop
endfacet 
facet normal 0 0.18 0
outer loop
vertex 4.3 2.9 0.3
vertex 4.9 2.9 0
vertex 4.3 2.9 0
endloop
endfacet 
facet normal 0 0.18 -0
outer loop
vertex 4.9 2.9 0
vertex 4.3 2.9 0.3
vertex 4.9 2.9 0.3
endloop
endfacet 
facet normal -0.39 -0 0
outer loop
vertex 4.9 4.2 0.3
vertex 4.9 2.9 0
vertex 4.9 2.9 0.3
endloop
endfacet 
facet normal -0.39 0 0
outer loop
vertex 4.9 2.9 0
vertex 4.9 4.2 0.3
vertex 4.9 4.2 0
endloop
endfacet 
facet normal 0 -0.42 -0
outer loop
vertex 4.9 4.2 0.3
vertex 3.5 4.2 0
vertex 4.9 4.2 0
endloop
endfacet 
facet normal 0 -0.42 0
outer loop
vertex 3.5 4.2 0
vertex 4.9 4.2 0.3
vertex 3.5 4.2 0.3
endloop
endfacet 
facet normal -0.03 -0 0
outer loop
vertex 3.5 4.3 0.3
vertex 3.5 4.2 0
vertex 3.5 4.2 0.3
endloop
endfacet 
facet normal -0.03 0 0
outer loop
vertex 3.5 4.2 0
vertex 3.5 4.3 0.3
vertex 3.5 4.3 0
endloop
endfacet 
facet normal 0 0.42 0
outer loop
vertex 3.5 4.3 0.3
vertex 4.9 4.3 0
vertex 3.5 4.3 0
endloop
endfacet 
facet normal 0 0.42 -0
outer loop
vertex 4.9 4.3 0
vertex 3.5 4.3 0.3
vertex 4.9 4.3 0.3
endloop
endfacet 
facet normal -0.21 -0 0
outer loop
vertex 4.9 5 0.3
vertex 4.9 4.3 0
vertex 4.9 4.3 0.3
endloop
endfacet 
facet normal -0.21 0 0
outer loop
vertex 4.9 4.3 0
vertex 4.9 5 0.3
vertex 4.9 5 0
endloop
endfacet 
facet normal 0 0.0299998 0
outer loop
vertex 4.9 5 0.3
vertex 5 5 0
vertex 4.9 5 0
endloop
endfacet 
facet normal 0 0.0299998 -0
outer loop
vertex 5 5 0
vertex 4.9 5 0.3
vertex 5 5 0.3
endloop
endfacet 
facet normal 1.5 0 0
outer loop
vertex 5 5 0
vertex 5 0 0.3
vertex 5 0 0
endloop
endfacet 
facet normal 1.5 -0 0
outer loop
vertex 5 0 0.3
vertex 5 5 0
vertex 5 5 0.3
endloop
endfacet 
facet normal 0 -1.5 -0
outer loop
vertex 5 0 0.3
vertex 0 0 0
vertex 5 0 0
endloop
endfacet 
facet normal 0 -1.5 0
outer loop
vertex 0 0 0
vertex 5 0 0.3
vertex 0 0 0.3
endloop
endfacet 
facet normal -1.5 -0 0
outer loop
vertex 0 5 0.3
vertex 0 0 0
vertex 0 0 0.3
endloop
endfacet 
facet normal -1.5 0 0
outer loop
vertex 0 0 0
vertex 0 5 0.3
vertex 0 5 0
endloop
endfacet 
facet normal 0 0.03 0
outer loop
vertex 0 5 0.3
vertex 0.1 5 0
vertex 0 5 0
endloop
endfacet 
facet normal 0 0.03 -0
outer loop
vertex 0.1 5 0
vertex 0 5 0.3
vertex 0.1 5 0.3
endloop
endfacet 
facet normal 1.47 0 0
outer loop
vertex 0.1 5 0
vertex 0.1 0.1 0.3
vertex 0.1 0.1 0
endloop
endfacet 
facet normal 1.47 -0 0
outer loop
vertex 0.1 0.1 0.3
vertex 0.1 5 0
vertex 0.1 5 0.3
endloop
endfacet 
facet normal -0 0 -0.0800001
outer loop
vertex 2.2 1.5 0
vertex 2.1 0.7 0
vertex 2.1 1.5 0
endloop
endfacet 
facet normal 0 0 -0.0700001
outer loop
vertex 2.1 0.7 0
vertex 2.2 1.5 0
vertex 2.2 0.8 0
endloop
endfacet 
facet normal 0 0 -0.15
outer loop
vertex 2.1 0.7 0
vertex 2.2 0.8 0
vertex 3.6 0.7 0
endloop
endfacet 
facet normal 0 0 -0.14
outer loop
vertex 3.6 0.7 0
vertex 2.2 0.8 0
vertex 3.6 0.8 0
endloop
endfacet 
facet normal 0 0 -0.0799999
outer loop
vertex 0.7 5 0
vertex 0.8 4.9 0
vertex 0.7 4.2 0
endloop
endfacet 
facet normal 0 0 -0.359998
outer loop
vertex 0.8 4.9 0
vertex 0.7 5 0
vertex 4.3 5 0
endloop
endfacet 
facet normal 0 0 -0.06
outer loop
vertex 0.7 4.2 0
vertex 0.8 4.9 0
vertex 0.8 4.3 0
endloop
endfacet 
facet normal 0 0 -0.129999
outer loop
vertex 0.8 4.9 0
vertex 4.3 5 0
vertex 2.1 4.9 0
endloop
endfacet 
facet normal 0 0 -0.00999996
outer loop
vertex 2.1 4.9 0
vertex 4.3 5 0
vertex 2.2 4.9 0
endloop
endfacet 
facet normal 0 0 -0.0700001
outer loop
vertex 2.1 4.9 0
vertex 2.2 4.9 0
vertex 2.1 4.2 0
endloop
endfacet 
facet normal 0 0 -0.0700001
outer loop
vertex 2.1 4.2 0
vertex 2.2 4.9 0
vertex 2.2 4.2 0
endloop
endfacet 
facet normal 0 0 -0.209999
outer loop
vertex 2.2 4.9 0
vertex 4.3 5 0
vertex 4.3 4.9 0
endloop
endfacet 
facet normal -0 0 -0.0699999
outer loop
vertex 2.9 4.3 0
vertex 2.8 3.6 0
vertex 2.8 4.3 0
endloop
endfacet 
facet normal 0 -0 -0.0699999
outer loop
vertex 0.8 4.3 0
vertex 1.4 4.2 0
vertex 0.7 4.2 0
endloop
endfacet 
facet normal 0 0 -0.0699999
outer loop
vertex 1.4 4.2 0
vertex 0.8 4.3 0
vertex 1.5 4.3 0
endloop
endfacet 
facet normal 0 0 -0.07
outer loop
vertex 1.4 4.2 0
vertex 1.5 4.3 0
vertex 1.4 3.5 0
endloop
endfacet 
facet normal 0 0 -0.07
outer loop
vertex 1.4 3.5 0
vertex 1.5 4.3 0
vertex 1.5 3.6 0
endloop
endfacet 
facet normal 0 0 -0.21
outer loop
vertex 1.4 3.5 0
vertex 1.5 3.6 0
vertex 3.5 3.5 0
endloop
endfacet 
facet normal 0 0 -0.13
outer loop
vertex 3.5 3.5 0
vertex 1.5 3.6 0
vertex 2.8 3.6 0
endloop
endfacet 
facet normal 0 0 -0.01
outer loop
vertex 3.5 3.5 0
vertex 2.8 3.6 0
vertex 2.9 3.6 0
endloop
endfacet 
facet normal 0 0 -0.0699999
outer loop
vertex 2.9 3.6 0
vertex 2.8 3.6 0
vertex 2.9 4.3 0
endloop
endfacet 
facet normal 0 0 -0.0700001
outer loop
vertex 3.5 3.5 0
vertex 2.9 3.6 0
vertex 3.6 3.6 0
endloop
endfacet 
facet normal 0 0 -0.14
outer loop
vertex 3.5 3.5 0
vertex 3.6 3.6 0
vertex 3.5 2.1 0
endloop
endfacet 
facet normal 0 0 -0.14
outer loop
vertex 3.5 2.1 0
vertex 3.6 3.6 0
vertex 3.6 2.2 0
endloop
endfacet 
facet normal 0 0 -0.0800001
outer loop
vertex 3.5 2.1 0
vertex 3.6 2.2 0
vertex 4.3 2.1 0
endloop
endfacet 
facet normal 0 0 -0.0700001
outer loop
vertex 4.3 2.1 0
vertex 3.6 2.2 0
vertex 4.3 2.2 0
endloop
endfacet 
facet normal 0.21 0 0
outer loop
vertex 2.9 4.3 0
vertex 2.9 3.6 0.3
vertex 2.9 3.6 0
endloop
endfacet 
facet normal 0.21 -0 0
outer loop
vertex 2.9 3.6 0.3
vertex 2.9 4.3 0
vertex 2.9 4.3 0.3
endloop
endfacet 
facet normal 0 0.21 0
outer loop
vertex 2.9 3.6 0.3
vertex 3.6 3.6 0
vertex 2.9 3.6 0
endloop
endfacet 
facet normal 0 0.21 -0
outer loop
vertex 3.6 3.6 0
vertex 2.9 3.6 0.3
vertex 3.6 3.6 0.3
endloop
endfacet 
facet normal 0.42 0 0
outer loop
vertex 3.6 3.6 0
vertex 3.6 2.2 0.3
vertex 3.6 2.2 0
endloop
endfacet 
facet normal 0.42 -0 0
outer loop
vertex 3.6 2.2 0.3
vertex 3.6 3.6 0
vertex 3.6 3.6 0.3
endloop
endfacet 
facet normal 0 0.21 0
outer loop
vertex 3.6 2.2 0.3
vertex 4.3 2.2 0
vertex 3.6 2.2 0
endloop
endfacet 
facet normal 0 0.21 -0
outer loop
vertex 4.3 2.2 0
vertex 3.6 2.2 0.3
vertex 4.3 2.2 0.3
endloop
endfacet 
facet normal 0.03 0 0
outer loop
vertex 4.3 2.2 0
vertex 4.3 2.1 0.3
vertex 4.3 2.1 0
endloop
endfacet 
facet normal 0.03 -0 0
outer loop
vertex 4.3 2.1 0.3
vertex 4.3 2.2 0
vertex 4.3 2.2 0.3
endloop
endfacet 
facet normal 0 -0.24 -0
outer loop
vertex 4.3 2.1 0.3
vertex 3.5 2.1 0
vertex 4.3 2.1 0
endloop
endfacet 
facet normal 0 -0.24 0
outer loop
vertex 3.5 2.1 0
vertex 4.3 2.1 0.3
vertex 3.5 2.1 0.3
endloop
endfacet 
facet normal -0.42 -0 0
outer loop
vertex 3.5 3.5 0.3
vertex 3.5 2.1 0
vertex 3.5 2.1 0.3
endloop
endfacet 
facet normal -0.42 0 0
outer loop
vertex 3.5 2.1 0
vertex 3.5 3.5 0.3
vertex 3.5 3.5 0
endloop
endfacet 
facet normal 0 -0.63 -0
outer loop
vertex 3.5 3.5 0.3
vertex 1.4 3.5 0
vertex 3.5 3.5 0
endloop
endfacet 
facet normal 0 -0.63 0
outer loop
vertex 1.4 3.5 0
vertex 3.5 3.5 0.3
vertex 1.4 3.5 0.3
endloop
endfacet 
facet normal -0.21 -0 0
outer loop
vertex 1.4 4.2 0.3
vertex 1.4 3.5 0
vertex 1.4 3.5 0.3
endloop
endfacet 
facet normal -0.21 0 0
outer loop
vertex 1.4 3.5 0
vertex 1.4 4.2 0.3
vertex 1.4 4.2 0
endloop
endfacet 
facet normal 0 -0.21 -0
outer loop
vertex 1.4 4.2 0.3
vertex 0.7 4.2 0
vertex 1.4 4.2 0
endloop
endfacet 
facet normal 0 -0.21 0
outer loop
vertex 0.7 4.2 0
vertex 1.4 4.2 0.3
vertex 0.7 4.2 0.3
endloop
endfacet 
facet normal -0.24 -0 0
outer loop
vertex 0.7 5 0.3
vertex 0.7 4.2 0
vertex 0.7 4.2 0.3
endloop
endfacet 
facet normal -0.24 0 0
outer loop
vertex 0.7 4.2 0
vertex 0.7 5 0.3
vertex 0.7 5 0
endloop
endfacet 
facet normal 0 1.08 0
outer loop
vertex 0.7 5 0.3
vertex 4.3 5 0
vertex 0.7 5 0
endloop
endfacet 
facet normal 0 1.08 -0
outer loop
vertex 4.3 5 0
vertex 0.7 5 0.3
vertex 4.3 5 0.3
endloop
endfacet 
facet normal 0.0299998 0 0
outer loop
vertex 4.3 5 0
vertex 4.3 4.9 0.3
vertex 4.3 4.9 0
endloop
endfacet 
facet normal 0.0299998 -0 0
outer loop
vertex 4.3 4.9 0.3
vertex 4.3 5 0
vertex 4.3 5 0.3
endloop
endfacet 
facet normal 0 -0.63 -0
outer loop
vertex 4.3 4.9 0.3
vertex 2.2 4.9 0
vertex 4.3 4.9 0
endloop
endfacet 
facet normal 0 -0.63 0
outer loop
vertex 2.2 4.9 0
vertex 4.3 4.9 0.3
vertex 2.2 4.9 0.3
endloop
endfacet 
facet normal 0.21 0 0
outer loop
vertex 2.2 4.9 0
vertex 2.2 4.2 0.3
vertex 2.2 4.2 0
endloop
endfacet 
facet normal 0.21 -0 0
outer loop
vertex 2.2 4.2 0.3
vertex 2.2 4.9 0
vertex 2.2 4.9 0.3
endloop
endfacet 
facet normal 0 -0.03 -0
outer loop
vertex 2.2 4.2 0.3
vertex 2.1 4.2 0
vertex 2.2 4.2 0
endloop
endfacet 
facet normal 0 -0.03 0
outer loop
vertex 2.1 4.2 0
vertex 2.2 4.2 0.3
vertex 2.1 4.2 0.3
endloop
endfacet 
facet normal -0.21 -0 0
outer loop
vertex 2.1 4.9 0.3
vertex 2.1 4.2 0
vertex 2.1 4.2 0.3
endloop
endfacet 
facet normal -0.21 0 0
outer loop
vertex 2.1 4.2 0
vertex 2.1 4.9 0.3
vertex 2.1 4.9 0
endloop
endfacet 
facet normal 0 -0.39 -0
outer loop
vertex 2.1 4.9 0.3
vertex 0.8 4.9 0
vertex 2.1 4.9 0
endloop
endfacet 
facet normal 0 -0.39 0
outer loop
vertex 0.8 4.9 0
vertex 2.1 4.9 0.3
vertex 0.8 4.9 0.3
endloop
endfacet 
facet normal 0.18 0 0
outer loop
vertex 0.8 4.9 0
vertex 0.8 4.3 0.3
vertex 0.8 4.3 0
endloop
endfacet 
facet normal 0.18 -0 0
outer loop
vertex 0.8 4.3 0.3
vertex 0.8 4.9 0
vertex 0.8 4.9 0.3
endloop
endfacet 
facet normal 0 0.21 0
outer loop
vertex 0.8 4.3 0.3
vertex 1.5 4.3 0
vertex 0.8 4.3 0
endloop
endfacet 
facet normal 0 0.21 -0
outer loop
vertex 1.5 4.3 0
vertex 0.8 4.3 0.3
vertex 1.5 4.3 0.3
endloop
endfacet 
facet normal 0.21 0 0
outer loop
vertex 1.5 4.3 0
vertex 1.5 3.6 0.3
vertex 1.5 3.6 0
endloop
endfacet 
facet normal 0.21 -0 0
outer loop
vertex 1.5 3.6 0.3
vertex 1.5 4.3 0
vertex 1.5 4.3 0.3
endloop
endfacet 
facet normal 0 0.39 0
outer loop
vertex 1.5 3.6 0.3
vertex 2.8 3.6 0
vertex 1.5 3.6 0
endloop
endfacet 
facet normal 0 0.39 -0
outer loop
vertex 2.8 3.6 0
vertex 1.5 3.6 0.3
vertex 2.8 3.6 0.3
endloop
endfacet 
facet normal -0.21 -0 0
outer loop
vertex 2.8 4.3 0.3
vertex 2.8 3.6 0
vertex 2.8 3.6 0.3
endloop
endfacet 
facet normal -0.21 0 0
outer loop
vertex 2.8 3.6 0
vertex 2.8 4.3 0.3
vertex 2.8 4.3 0
endloop
endfacet 
facet normal 0 0.03 0
outer loop
vertex 2.8 4.3 0.3
vertex 2.9 4.3 0
vertex 2.8 4.3 0
endloop
endfacet 
facet normal 0 0.03 -0
outer loop
vertex 2.9 4.3 0
vertex 2.8 4.3 0.3
vertex 2.9 4.3 0.3
endloop
endfacet 
facet normal 0 0 0.0699999
outer loop
vertex 2.9 4.3 0.3
vertex 2.8 4.3 0.3
vertex 2.9 3.6 0.3
endloop
endfacet 
facet normal 0 0 0.14
outer loop
vertex 3.5 2.1 0.3
vertex 3.6 2.2 0.3
vertex 3.5 3.5 0.3
endloop
endfacet 
facet normal 0 0 0.0800001
outer loop
vertex 3.6 2.2 0.3
vertex 3.5 2.1 0.3
vertex 4.3 2.1 0.3
endloop
endfacet 
facet normal -0 0 0.0700001
outer loop
vertex 3.6 2.2 0.3
vertex 4.3 2.1 0.3
vertex 4.3 2.2 0.3
endloop
endfacet 
facet normal 0 0 0.07
outer loop
vertex 1.4 3.5 0.3
vertex 1.5 3.6 0.3
vertex 1.4 4.2 0.3
endloop
endfacet 
facet normal 0 0 0.21
outer loop
vertex 1.5 3.6 0.3
vertex 1.4 3.5 0.3
vertex 3.5 3.5 0.3
endloop
endfacet 
facet normal -0 0 0.13
outer loop
vertex 1.5 3.6 0.3
vertex 3.5 3.5 0.3
vertex 2.8 3.6 0.3
endloop
endfacet 
facet normal -0 0 0.01
outer loop
vertex 2.8 3.6 0.3
vertex 3.5 3.5 0.3
vertex 2.9 3.6 0.3
endloop
endfacet 
facet normal 0 0 0.0699999
outer loop
vertex 2.8 3.6 0.3
vertex 2.9 3.6 0.3
vertex 2.8 4.3 0.3
endloop
endfacet 
facet normal -0 0 0.0700001
outer loop
vertex 2.9 3.6 0.3
vertex 3.5 3.5 0.3
vertex 3.6 3.6 0.3
endloop
endfacet 
facet normal 0 0 0.14
outer loop
vertex 3.6 3.6 0.3
vertex 3.5 3.5 0.3
vertex 3.6 2.2 0.3
endloop
endfacet 
facet normal 0 0 0.0799999
outer loop
vertex 0.7 4.2 0.3
vertex 0.8 4.3 0.3
vertex 0.7 5 0.3
endloop
endfacet 
facet normal 0 0 0.0699999
outer loop
vertex 0.8 4.3 0.3
vertex 0.7 4.2 0.3
vertex 1.4 4.2 0.3
endloop
endfacet 
facet normal -0 0 0.0699999
outer loop
vertex 0.8 4.3 0.3
vertex 1.4 4.2 0.3
vertex 1.5 4.3 0.3
endloop
endfacet 
facet normal 0 0 0.07
outer loop
vertex 1.5 4.3 0.3
vertex 1.4 4.2 0.3
vertex 1.5 3.6 0.3
endloop
endfacet 
facet normal 0 0 0.0700001
outer loop
vertex 2.2 4.2 0.3
vertex 2.1 4.9 0.3
vertex 2.1 4.2 0.3
endloop
endfacet 
facet normal -0 0 0.359998
outer loop
vertex 0.7 5 0.3
vertex 0.8 4.9 0.3
vertex 4.3 5 0.3
endloop
endfacet 
facet normal 0 0 0.06
outer loop
vertex 0.8 4.9 0.3
vertex 0.7 5 0.3
vertex 0.8 4.3 0.3
endloop
endfacet 
facet normal 0 0 0.129999
outer loop
vertex 4.3 5 0.3
vertex 0.8 4.9 0.3
vertex 2.1 4.9 0.3
endloop
endfacet 
facet normal 0 0 0.00999996
outer loop
vertex 4.3 5 0.3
vertex 2.1 4.9 0.3
vertex 2.2 4.9 0.3
endloop
endfacet 
facet normal 0 0 0.0700001
outer loop
vertex 2.2 4.9 0.3
vertex 2.1 4.9 0.3
vertex 2.2 4.2 0.3
endloop
endfacet 
facet normal 0 0 0.209999
outer loop
vertex 4.3 5 0.3
vertex 2.2 4.9 0.3
vertex 4.3 4.9 0.3
endloop
endfacet 
facet normal -0 0 -0.08
outer loop
vertex 0.8 2.2 0
vertex 0.7 1.4 0
vertex 0.7 2.2 0
endloop
endfacet 
facet normal 0 0 -0.07
outer loop
vertex 0.7 1.4 0
vertex 0.8 2.2 0
vertex 0.8 1.5 0
endloop
endfacet 
facet normal 0 0 -0.07
outer loop
vertex 0.7 1.4 0
vertex 0.8 1.5 0
vertex 1.4 1.4 0
endloop
endfacet 
facet normal 0 0 -0.06
outer loop
vertex 1.4 1.4 0
vertex 0.8 1.5 0
vertex 1.4 1.5 0
endloop
endfacet 
facet normal -0 0 -0.08
outer loop
vertex 0.8 3.6 0
vertex 0.7 2.8 0
vertex 0.7 3.6 0
endloop
endfacet 
facet normal 0 0 -0.07
outer loop
vertex 0.7 2.8 0
vertex 0.8 3.6 0
vertex 0.8 2.9 0
endloop
endfacet 
facet normal 0 0 -0.21
outer loop
vertex 0.7 2.8 0
vertex 0.8 2.9 0
vertex 2.8 2.8 0
endloop
endfacet 
facet normal 0 0 -0.21
outer loop
vertex 2.8 2.8 0
vertex 0.8 2.9 0
vertex 2.9 2.9 0
endloop
endfacet 
facet normal 0 0 -0.0599999
outer loop
vertex 2.8 2.8 0
vertex 2.9 2.9 0
vertex 2.8 2.2 0
endloop
endfacet 
facet normal 0 0 -0.01
outer loop
vertex 2.8 2.2 0
vertex 2.9 2.9 0
vertex 2.8 2.1 0
endloop
endfacet 
facet normal 0 0 -0.0699999
outer loop
vertex 2.8 2.1 0
vertex 2.9 2.9 0
vertex 2.8 1.4 0
endloop
endfacet 
facet normal 0 0 -0.14
outer loop
vertex 2.8 1.4 0
vertex 2.9 2.9 0
vertex 2.9 1.5 0
endloop
endfacet 
facet normal 0 0 -0.15
outer loop
vertex 2.8 1.4 0
vertex 2.9 1.5 0
vertex 4.3 1.4 0
endloop
endfacet 
facet normal 0 0 -0.14
outer loop
vertex 4.3 1.4 0
vertex 2.9 1.5 0
vertex 4.3 1.5 0
endloop
endfacet 
facet normal 0 0 -0.07
outer loop
vertex 1.4 2.2 0
vertex 1.5 2.1 0
vertex 1.4 1.5 0
endloop
endfacet 
facet normal 0 0 -0.14
outer loop
vertex 1.5 2.1 0
vertex 1.4 2.2 0
vertex 2.8 2.2 0
endloop
endfacet 
facet normal 0 0 -0.01
outer loop
vertex 1.4 1.5 0
vertex 1.5 2.1 0
vertex 1.4 1.4 0
endloop
endfacet 
facet normal 0 0 -0.07
outer loop
vertex 1.4 1.4 0
vertex 1.5 2.1 0
vertex 1.4 0.7 0
endloop
endfacet 
facet normal 0 0 -0.13
outer loop
vertex 1.5 2.1 0
vertex 2.8 2.2 0
vertex 2.8 2.1 0
endloop
endfacet 
facet normal 0 0 -0.14
outer loop
vertex 1.5 0.7 0
vertex 1.4 0.7 0
vertex 1.5 2.1 0
endloop
endfacet 
facet normal 0.21 0 0
outer loop
vertex 2.2 1.5 0
vertex 2.2 0.8 0.3
vertex 2.2 0.8 0
endloop
endfacet 
facet normal 0.21 -0 0
outer loop
vertex 2.2 0.8 0.3
vertex 2.2 1.5 0
vertex 2.2 1.5 0.3
endloop
endfacet 
facet normal 0 0.03 0
outer loop
vertex 2.1 1.5 0.3
vertex 2.2 1.5 0
vertex 2.1 1.5 0
endloop
endfacet 
facet normal 0 0.03 -0
outer loop
vertex 2.2 1.5 0
vertex 2.1 1.5 0.3
vertex 2.2 1.5 0.3
endloop
endfacet 
facet normal 0 0 0.0700001
outer loop
vertex 2.2 1.5 0.3
vertex 2.1 1.5 0.3
vertex 2.2 0.8 0.3
endloop
endfacet 
facet normal 0 0 0.0800001
outer loop
vertex 2.1 0.7 0.3
vertex 2.2 0.8 0.3
vertex 2.1 1.5 0.3
endloop
endfacet 
facet normal 0 0 0.15
outer loop
vertex 2.2 0.8 0.3
vertex 2.1 0.7 0.3
vertex 3.6 0.7 0.3
endloop
endfacet 
facet normal -0 0 0.14
outer loop
vertex 2.2 0.8 0.3
vertex 3.6 0.7 0.3
vertex 3.6 0.8 0.3
endloop
endfacet 
facet normal 0 0.42 0
outer loop
vertex 2.2 0.8 0.3
vertex 3.6 0.8 0
vertex 2.2 0.8 0
endloop
endfacet 
facet normal 0 0.42 -0
outer loop
vertex 3.6 0.8 0
vertex 2.2 0.8 0.3
vertex 3.6 0.8 0.3
endloop
endfacet 
facet normal -0.24 -0 0
outer loop
vertex 2.1 1.5 0.3
vertex 2.1 0.7 0
vertex 2.1 0.7 0.3
endloop
endfacet 
facet normal -0.24 0 0
outer loop
vertex 2.1 0.7 0
vertex 2.1 1.5 0.3
vertex 2.1 1.5 0
endloop
endfacet 
facet normal 0 -0.45 -0
outer loop
vertex 3.6 0.7 0.3
vertex 2.1 0.7 0
vertex 3.6 0.7 0
endloop
endfacet 
facet normal 0 -0.45 0
outer loop
vertex 2.1 0.7 0
vertex 3.6 0.7 0.3
vertex 2.1 0.7 0.3
endloop
endfacet 
facet normal 0.03 0 0
outer loop
vertex 3.6 0.8 0
vertex 3.6 0.7 0.3
vertex 3.6 0.7 0
endloop
endfacet 
facet normal 0.03 -0 0
outer loop
vertex 3.6 0.7 0.3
vertex 3.6 0.8 0
vertex 3.6 0.8 0.3
endloop
endfacet 
facet normal -0 0 -1.26
outer loop
vertex 2.8 2.8 0
vertex 0.7 2.2 0
vertex 0.7 2.8 0
endloop
endfacet 
facet normal 0 0 -0.06
outer loop
vertex 0.7 2.2 0
vertex 2.8 2.8 0
vertex 0.8 2.2 0
endloop
endfacet 
facet normal 0 0 -0.36
outer loop
vertex 0.8 2.2 0
vertex 2.8 2.8 0
vertex 1.4 2.2 0
endloop
endfacet 
facet normal 0 0 -0.42
outer loop
vertex 0.8 2.2 0
vertex 1.4 2.2 0
vertex 0.8 1.5 0
endloop
endfacet 
facet normal 0 0 -0.84
outer loop
vertex 1.4 2.2 0
vertex 2.8 2.8 0
vertex 2.8 2.2 0
endloop
endfacet 
facet normal 0 0 -0.42
outer loop
vertex 1.4 1.5 0
vertex 0.8 1.5 0
vertex 1.4 2.2 0
endloop
endfacet 
facet normal 0 0 -0.42
outer loop
vertex 0.8 4.9 0
vertex 1.5 4.3 0
vertex 0.8 4.3 0
endloop
endfacet 
facet normal 0 0 -0.78
outer loop
vertex 1.5 4.3 0
vertex 0.8 4.9 0
vertex 2.1 4.9 0
endloop
endfacet 
facet normal 0 0 -0.42
outer loop
vertex 1.5 4.3 0
vertex 2.1 4.9 0
vertex 1.5 3.6 0
endloop
endfacet 
facet normal 0 0 -0.42
outer loop
vertex 1.5 3.6 0
vertex 2.1 4.9 0
vertex 2.1 4.2 0
endloop
endfacet 
facet normal 0 0 -0.78
outer loop
vertex 1.5 3.6 0
vertex 2.1 4.2 0
vertex 2.8 3.6 0
endloop
endfacet 
facet normal 0 0 -0.0600001
outer loop
vertex 2.8 3.6 0
vertex 2.1 4.2 0
vertex 2.2 4.2 0
endloop
endfacet 
facet normal 0 0 -0.42
outer loop
vertex 2.8 3.6 0
vertex 2.2 4.2 0
vertex 2.2 4.9 0
endloop
endfacet 
facet normal 0 0 -0.42
outer loop
vertex 2.8 3.6 0
vertex 2.2 4.9 0
vertex 2.8 4.3 0
endloop
endfacet 
facet normal 0 0 -2.94
outer loop
vertex 0.1 5 0
vertex 0.7 0.1 0
vertex 0.1 0.1 0
endloop
endfacet 
facet normal 0 0 -2.94
outer loop
vertex 0.7 0.1 0
vertex 0.1 5 0
vertex 0.7 5 0
endloop
endfacet 
facet normal 0 0 0
outer loop
vertex 0.7 0.1 0
vertex 0.7 5 0
vertex 0.7 4.2 0
endloop
endfacet 
facet normal 0 0 0
outer loop
vertex 0.7 0.1 0
vertex 0.7 4.2 0
vertex 0.7 3.6 0
endloop
endfacet 
facet normal 0 0 0
outer loop
vertex 0.7 0.1 0
vertex 0.7 3.6 0
vertex 0.7 2.8 0
endloop
endfacet 
facet normal 0 0 0
outer loop
vertex 0.7 0.1 0
vertex 0.7 2.8 0
vertex 0.7 2.2 0
endloop
endfacet 
facet normal 0 0 0
outer loop
vertex 0.7 0.1 0
vertex 0.7 2.2 0
vertex 0.7 1.4 0
endloop
endfacet 
facet normal 0 0 0
outer loop
vertex 0.7 0.1 0
vertex 0.7 1.4 0
vertex 0.7 0.8 0
endloop
endfacet 
facet normal -0 0 -0.0599997
outer loop
vertex 4.9 5 0
vertex 4.3 4.9 0
vertex 4.3 5 0
endloop
endfacet 
facet normal -0 0 -1.26
outer loop
vertex 4.3 4.9 0
vertex 2.8 4.3 0
vertex 2.2 4.9 0
endloop
endfacet 
facet normal 0 0 -0.06
outer loop
vertex 2.8 4.3 0
vertex 4.3 4.9 0
vertex 2.9 4.3 0
endloop
endfacet 
facet normal 0 0 -0.36
outer loop
vertex 2.9 4.3 0
vertex 4.3 4.9 0
vertex 3.5 4.3 0
endloop
endfacet 
facet normal 0 0 -0.42
outer loop
vertex 2.9 4.3 0
vertex 3.5 4.3 0
vertex 2.9 3.6 0
endloop
endfacet 
facet normal 0 0 -0.840001
outer loop
vertex 3.5 4.3 0
vertex 4.3 4.9 0
vertex 4.9 4.3 0
endloop
endfacet 
facet normal 0 0 -0.42
outer loop
vertex 4.9 4.3 0
vertex 4.3 4.9 0
vertex 4.9 5 0
endloop
endfacet 
facet normal 0 0 -0.42
outer loop
vertex 2.9 3.6 0
vertex 3.5 4.2 0
vertex 3.6 3.6 0
endloop
endfacet 
facet normal -0 0 -0.0599999
outer loop
vertex 3.5 4.2 0
vertex 2.9 3.6 0
vertex 3.5 4.3 0
endloop
endfacet 
facet normal 0 0 -0.84
outer loop
vertex 3.6 3.6 0
vertex 3.5 4.2 0
vertex 4.9 4.2 0
endloop
endfacet 
facet normal 0 0 -0.36
outer loop
vertex 3.6 3.6 0
vertex 4.9 4.2 0
vertex 4.2 3.6 0
endloop
endfacet 
facet normal 0 0 -0.84
outer loop
vertex 3.6 3.6 0
vertex 4.2 3.6 0
vertex 3.6 2.2 0
endloop
endfacet 
facet normal 0 0 -0.0599999
outer loop
vertex 4.2 3.6 0
vertex 4.9 4.2 0
vertex 4.3 3.6 0
endloop
endfacet 
facet normal 0 0 -0.42
outer loop
vertex 4.3 3.6 0
vertex 4.9 4.2 0
vertex 4.3 2.9 0
endloop
endfacet 
facet normal 0 0 -0.78
outer loop
vertex 4.3 2.9 0
vertex 4.9 4.2 0
vertex 4.9 2.9 0
endloop
endfacet 
facet normal 0 0 -0.42
outer loop
vertex 3.6 2.2 0
vertex 4.2 2.8 0
vertex 4.3 2.2 0
endloop
endfacet 
facet normal -0 0 -0.48
outer loop
vertex 4.2 2.8 0
vertex 3.6 2.2 0
vertex 4.2 3.6 0
endloop
endfacet 
facet normal 0 0 -0.42
outer loop
vertex 4.3 2.2 0
vertex 4.2 2.8 0
vertex 4.9 2.8 0
endloop
endfacet 
facet normal 0 0 -0.0600001
outer loop
vertex 4.3 2.2 0
vertex 4.9 2.8 0
vertex 4.3 2.1 0
endloop
endfacet 
facet normal 0 0 -0.36
outer loop
vertex 4.3 2.1 0
vertex 4.9 2.8 0
vertex 4.3 1.5 0
endloop
endfacet 
facet normal 0 0 -0.0600001
outer loop
vertex 4.3 1.5 0
vertex 4.9 2.8 0
vertex 4.3 1.4 0
endloop
endfacet 
facet normal 0 0 -0.84
outer loop
vertex 1.5 2.1 0
vertex 2.1 1.5 0
vertex 1.5 0.7 0
endloop
endfacet 
facet normal 0 0 -0.78
outer loop
vertex 2.1 1.5 0
vertex 1.5 2.1 0
vertex 2.8 2.1 0
endloop
endfacet 
facet normal 0 0 -0.0600001
outer loop
vertex 2.1 1.5 0
vertex 2.8 2.1 0
vertex 2.2 1.5 0
endloop
endfacet 
facet normal 0 0 -0.42
outer loop
vertex 2.2 1.5 0
vertex 2.8 2.1 0
vertex 2.2 0.8 0
endloop
endfacet 
facet normal 0 0 -0.42
outer loop
vertex 2.2 0.8 0
vertex 2.8 2.1 0
vertex 2.8 1.4 0
endloop
endfacet 
facet normal 0 0 -0.84
outer loop
vertex 2.2 0.8 0
vertex 2.8 1.4 0
vertex 3.6 0.8 0
endloop
endfacet 
facet normal 0 0 -0.9
outer loop
vertex 3.6 0.8 0
vertex 2.8 1.4 0
vertex 4.3 1.4 0
endloop
endfacet 
facet normal 0 0 -0.07
outer loop
vertex 3.6 0.8 0
vertex 4.3 1.4 0
vertex 3.6 0.7 0
endloop
endfacet 
facet normal 0 0 -0.35
outer loop
vertex 3.6 0.7 0
vertex 4.3 1.4 0
vertex 4.2 0.8 0
endloop
endfacet 
facet normal 0 0 -0.42
outer loop
vertex 4.2 0.8 0
vertex 4.3 1.4 0
vertex 4.9 0.8 0
endloop
endfacet 
facet normal 0 0 -1.2
outer loop
vertex 4.9 0.8 0
vertex 4.3 1.4 0
vertex 4.9 2.8 0
endloop
endfacet 
facet normal -0 0 -0.42
outer loop
vertex 1.4 4.2 0
vertex 0.7 3.6 0
vertex 0.7 4.2 0
endloop
endfacet 
facet normal 0 0 -0.06
outer loop
vertex 0.7 3.6 0
vertex 1.4 4.2 0
vertex 0.8 3.6 0
endloop
endfacet 
facet normal 0 0 -0.42
outer loop
vertex 0.8 3.6 0
vertex 1.4 4.2 0
vertex 0.8 2.9 0
endloop
endfacet 
facet normal 0 0 -0.42
outer loop
vertex 0.8 2.9 0
vertex 1.4 4.2 0
vertex 1.4 3.5 0
endloop
endfacet 
facet normal 0 0 -1.26
outer loop
vertex 0.8 2.9 0
vertex 1.4 3.5 0
vertex 2.9 2.9 0
endloop
endfacet 
facet normal 0 0 -1.26
outer loop
vertex 2.9 2.9 0
vertex 1.4 3.5 0
vertex 3.5 3.5 0
endloop
endfacet 
facet normal 0 0 -0.84
outer loop
vertex 2.9 2.9 0
vertex 3.5 3.5 0
vertex 2.9 1.5 0
endloop
endfacet 
facet normal 0 0 -0.84
outer loop
vertex 2.9 1.5 0
vertex 3.5 3.5 0
vertex 3.5 2.1 0
endloop
endfacet 
facet normal 0 0 -0.84
outer loop
vertex 2.9 1.5 0
vertex 3.5 2.1 0
vertex 4.3 1.5 0
endloop
endfacet 
facet normal 0 0 -0.48
outer loop
vertex 4.3 1.5 0
vertex 3.5 2.1 0
vertex 4.3 2.1 0
endloop
endfacet 
facet normal -0 0 -0.42
outer loop
vertex 1.4 1.4 0
vertex 0.7 0.8 0
vertex 0.7 1.4 0
endloop
endfacet 
facet normal 0 0 -0.06
outer loop
vertex 0.7 0.8 0
vertex 1.4 1.4 0
vertex 0.8 0.8 0
endloop
endfacet 
facet normal 0 0 -0.42
outer loop
vertex 0.8 0.8 0
vertex 1.4 1.4 0
vertex 0.8 0.1 0
endloop
endfacet 
facet normal 0 0 -0.42
outer loop
vertex 0.8 0.1 0
vertex 1.4 1.4 0
vertex 1.4 0.7 0
endloop
endfacet 
facet normal 0 0 -2.46
outer loop
vertex 0.8 0.1 0
vertex 1.4 0.7 0
vertex 4.9 0.1 0
endloop
endfacet 
facet normal 0 0 -0.0599999
outer loop
vertex 4.9 0.1 0
vertex 1.4 0.7 0
vertex 1.5 0.7 0
endloop
endfacet 
facet normal 0 0 -0.36
outer loop
vertex 4.9 0.1 0
vertex 1.5 0.7 0
vertex 2.1 0.7 0
endloop
endfacet 
facet normal 0 0 -0.48
outer loop
vertex 2.1 0.7 0
vertex 1.5 0.7 0
vertex 2.1 1.5 0
endloop
endfacet 
facet normal 0 0 -0.9
outer loop
vertex 4.9 0.1 0
vertex 2.1 0.7 0
vertex 3.6 0.7 0
endloop
endfacet 
facet normal 0 0 -0.36
outer loop
vertex 4.9 0.1 0
vertex 3.6 0.7 0
vertex 4.2 0.7 0
endloop
endfacet 
facet normal 0 0 -0.06
outer loop
vertex 4.2 0.7 0
vertex 3.6 0.7 0
vertex 4.2 0.8 0
endloop
endfacet 
facet normal 0 0 -0.42
outer loop
vertex 4.9 0.1 0
vertex 4.2 0.7 0
vertex 4.9 0.7 0
endloop
endfacet 
facet normal 0 0 0.42
outer loop
vertex 4.9 0.7 0
vertex 4.2 0.7 0
vertex 4.9 0.1 0
endloop
endfacet 
facet normal 0 0 0.06
outer loop
vertex 4.2 0.8 0
vertex 3.6 0.7 0
vertex 4.2 0.7 0
endloop
endfacet 
facet normal 0 0 0.36
outer loop
vertex 4.2 0.7 0
vertex 3.6 0.7 0
vertex 4.9 0.1 0
endloop
endfacet 
facet normal 0 0 0.9
outer loop
vertex 3.6 0.7 0
vertex 2.1 0.7 0
vertex 4.9 0.1 0
endloop
endfacet 
facet normal 0 0 0.48
outer loop
vertex 2.1 1.5 0
vertex 1.5 0.7 0
vertex 2.1 0.7 0
endloop
endfacet 
facet normal 0 0 0.36
outer loop
vertex 2.1 0.7 0
vertex 1.5 0.7 0
vertex 4.9 0.1 0
endloop
endfacet 
facet normal 0 0 0.06
outer loop
vertex 1.5 0.7 0
vertex 1.4 0.7 0
vertex 4.9 0.1 0
endloop
endfacet 
facet normal 0 0 2.46
outer loop
vertex 4.9 0.1 0
vertex 1.4 0.7 0
vertex 0.8 0.1 0
endloop
endfacet 
facet normal 0 -0 0.42
outer loop
vertex 1.4 0.7 0
vertex 1.4 1.4 0
vertex 0.8 0.1 0
endloop
endfacet 
facet normal 0 0 0.42
outer loop
vertex 0.8 0.1 0
vertex 1.4 1.4 0
vertex 0.8 0.8 0
endloop
endfacet 
facet normal 0 -0 0.06
outer loop
vertex 0.8 0.8 0
vertex 1.4 1.4 0
vertex 0.7 0.8 0
endloop
endfacet 
facet normal -0 0 0.42
outer loop
vertex 0.7 1.4 0
vertex 0.7 0.8 0
vertex 1.4 1.4 0
endloop
endfacet 
facet normal 0 0 0.48
outer loop
vertex 4.3 2.1 0
vertex 3.5 2.1 0
vertex 4.3 1.5 0
endloop
endfacet 
facet normal 0 0 0.84
outer loop
vertex 4.3 1.5 0
vertex 3.5 2.1 0
vertex 2.9 1.5 0
endloop
endfacet 
facet normal 0 -0 0.84
outer loop
vertex 3.5 2.1 0
vertex 3.5 3.5 0
vertex 2.9 1.5 0
endloop
endfacet 
facet normal 0 0 0.84
outer loop
vertex 2.9 1.5 0
vertex 3.5 3.5 0
vertex 2.9 2.9 0
endloop
endfacet 
facet normal 0 0 1.26
outer loop
vertex 3.5 3.5 0
vertex 1.4 3.5 0
vertex 2.9 2.9 0
endloop
endfacet 
facet normal 0 0 1.26
outer loop
vertex 2.9 2.9 0
vertex 1.4 3.5 0
vertex 0.8 2.9 0
endloop
endfacet 
facet normal 0 -0 0.42
outer loop
vertex 1.4 3.5 0
vertex 1.4 4.2 0
vertex 0.8 2.9 0
endloop
endfacet 
facet normal 0 0 0.42
outer loop
vertex 0.8 2.9 0
vertex 1.4 4.2 0
vertex 0.8 3.6 0
endloop
endfacet 
facet normal 0 -0 0.06
outer loop
vertex 0.8 3.6 0
vertex 1.4 4.2 0
vertex 0.7 3.6 0
endloop
endfacet 
facet normal -0 0 0.42
outer loop
vertex 0.7 4.2 0
vertex 0.7 3.6 0
vertex 1.4 4.2 0
endloop
endfacet 
facet normal 0 0 1.2
outer loop
vertex 4.9 2.8 0
vertex 4.3 1.4 0
vertex 4.9 0.8 0
endloop
endfacet 
facet normal 0 0 0.42
outer loop
vertex 4.9 0.8 0
vertex 4.3 1.4 0
vertex 4.2 0.8 0
endloop
endfacet 
facet normal 0 -0 0.35
outer loop
vertex 4.2 0.8 0
vertex 4.3 1.4 0
vertex 3.6 0.7 0
endloop
endfacet 
facet normal 0 0 0.07
outer loop
vertex 3.6 0.7 0
vertex 4.3 1.4 0
vertex 3.6 0.8 0
endloop
endfacet 
facet normal 0 0 0.9
outer loop
vertex 4.3 1.4 0
vertex 2.8 1.4 0
vertex 3.6 0.8 0
endloop
endfacet 
facet normal 0 0 0.84
outer loop
vertex 3.6 0.8 0
vertex 2.8 1.4 0
vertex 2.2 0.8 0
endloop
endfacet 
facet normal 0 -0 0.42
outer loop
vertex 2.8 1.4 0
vertex 2.8 2.1 0
vertex 2.2 0.8 0
endloop
endfacet 
facet normal 0 0 0.42
outer loop
vertex 2.2 0.8 0
vertex 2.8 2.1 0
vertex 2.2 1.5 0
endloop
endfacet 
facet normal 0 -0 0.0600001
outer loop
vertex 2.2 1.5 0
vertex 2.8 2.1 0
vertex 2.1 1.5 0
endloop
endfacet 
facet normal 0 0 0.78
outer loop
vertex 2.8 2.1 0
vertex 1.5 2.1 0
vertex 2.1 1.5 0
endloop
endfacet 
facet normal 0 0 0.84
outer loop
vertex 1.5 0.7 0
vertex 2.1 1.5 0
vertex 1.5 2.1 0
endloop
endfacet 
facet normal 0 0 0.0600001
outer loop
vertex 4.3 1.4 0
vertex 4.9 2.8 0
vertex 4.3 1.5 0
endloop
endfacet 
facet normal 0 0 0.36
outer loop
vertex 4.3 1.5 0
vertex 4.9 2.8 0
vertex 4.3 2.1 0
endloop
endfacet 
facet normal 0 0 0.0600001
outer loop
vertex 4.3 2.1 0
vertex 4.9 2.8 0
vertex 4.3 2.2 0
endloop
endfacet 
facet normal 0 0 0.42
outer loop
vertex 4.9 2.8 0
vertex 4.2 2.8 0
vertex 4.3 2.2 0
endloop
endfacet 
facet normal 0 0 0.48
outer loop
vertex 4.2 3.6 0
vertex 3.6 2.2 0
vertex 4.2 2.8 0
endloop
endfacet 
facet normal 0 0 0.42
outer loop
vertex 4.3 2.2 0
vertex 4.2 2.8 0
vertex 3.6 2.2 0
endloop
endfacet 
facet normal 0 -0 0.78
outer loop
vertex 4.9 2.9 0
vertex 4.9 4.2 0
vertex 4.3 2.9 0
endloop
endfacet 
facet normal 0 0 0.42
outer loop
vertex 4.3 2.9 0
vertex 4.9 4.2 0
vertex 4.3 3.6 0
endloop
endfacet 
facet normal 0 -0 0.0599999
outer loop
vertex 4.3 3.6 0
vertex 4.9 4.2 0
vertex 4.2 3.6 0
endloop
endfacet 
facet normal 0 0 0.84
outer loop
vertex 3.6 2.2 0
vertex 4.2 3.6 0
vertex 3.6 3.6 0
endloop
endfacet 
facet normal 0 -0 0.36
outer loop
vertex 4.2 3.6 0
vertex 4.9 4.2 0
vertex 3.6 3.6 0
endloop
endfacet 
facet normal 0 0 0.84
outer loop
vertex 4.9 4.2 0
vertex 3.5 4.2 0
vertex 3.6 3.6 0
endloop
endfacet 
facet normal 0 0 0.0599999
outer loop
vertex 3.5 4.3 0
vertex 2.9 3.6 0
vertex 3.5 4.2 0
endloop
endfacet 
facet normal 0 0 0.42
outer loop
vertex 3.6 3.6 0
vertex 3.5 4.2 0
vertex 2.9 3.6 0
endloop
endfacet 
facet normal 0 0 0.42
outer loop
vertex 4.9 5 0
vertex 4.3 4.9 0
vertex 4.9 4.3 0
endloop
endfacet 
facet normal 0 0 0.840001
outer loop
vertex 4.9 4.3 0
vertex 4.3 4.9 0
vertex 3.5 4.3 0
endloop
endfacet 
facet normal 0 0 0.42
outer loop
vertex 2.9 3.6 0
vertex 3.5 4.3 0
vertex 2.9 4.3 0
endloop
endfacet 
facet normal 0 -0 0.36
outer loop
vertex 3.5 4.3 0
vertex 4.3 4.9 0
vertex 2.9 4.3 0
endloop
endfacet 
facet normal 0 -0 0.06
outer loop
vertex 2.9 4.3 0
vertex 4.3 4.9 0
vertex 2.8 4.3 0
endloop
endfacet 
facet normal -0 0 1.26
outer loop
vertex 2.2 4.9 0
vertex 2.8 4.3 0
vertex 4.3 4.9 0
endloop
endfacet 
facet normal -0 0 0.0599997
outer loop
vertex 4.3 5 0
vertex 4.3 4.9 0
vertex 4.9 5 0
endloop
endfacet 
facet normal 0 0 -0
outer loop
vertex 0.7 0.8 0
vertex 0.7 1.4 0
vertex 0.7 0.1 0
endloop
endfacet 
facet normal 0 0 -0
outer loop
vertex 0.7 1.4 0
vertex 0.7 2.2 0
vertex 0.7 0.1 0
endloop
endfacet 
facet normal 0 0 -0
outer loop
vertex 0.7 2.2 0
vertex 0.7 2.8 0
vertex 0.7 0.1 0
endloop
endfacet 
facet normal 0 0 -0
outer loop
vertex 0.7 2.8 0
vertex 0.7 3.6 0
vertex 0.7 0.1 0
endloop
endfacet 
facet normal 0 0 -0
outer loop
vertex 0.7 3.6 0
vertex 0.7 4.2 0
vertex 0.7 0.1 0
endloop
endfacet 
facet normal 0 0 -0
outer loop
vertex 0.7 4.2 0
vertex 0.7 5 0
vertex 0.7 0.1 0
endloop
endfacet 
facet normal 0 0 2.94
outer loop
vertex 0.7 5 0
vertex 0.1 5 0
vertex 0.7 0.1 0
endloop
endfacet 
facet normal 0 0 2.94
outer loop
vertex 0.1 0.1 0
vertex 0.7 0.1 0
vertex 0.1 5 0
endloop
endfacet 
facet normal 0 0 0.42
outer loop
vertex 2.8 4.3 0
vertex 2.2 4.9 0
vertex 2.8 3.6 0
endloop
endfacet 
facet normal 0 0 0.42
outer loop
vertex 2.2 4.9 0
vertex 2.2 4.2 0
vertex 2.8 3.6 0
endloop
endfacet 
facet normal 0 0 0.0600001
outer loop
vertex 2.2 4.2 0
vertex 2.1 4.2 0
vertex 2.8 3.6 0
endloop
endfacet 
facet normal 0 0 0.78
outer loop
vertex 2.8 3.6 0
vertex 2.1 4.2 0
vertex 1.5 3.6 0
endloop
endfacet 
facet normal 0 -0 0.42
outer loop
vertex 2.1 4.2 0
vertex 2.1 4.9 0
vertex 1.5 3.6 0
endloop
endfacet 
facet normal 0 0 0.42
outer loop
vertex 1.5 3.6 0
vertex 2.1 4.9 0
vertex 1.5 4.3 0
endloop
endfacet 
facet normal 0 0 0.78
outer loop
vertex 2.1 4.9 0
vertex 0.8 4.9 0
vertex 1.5 4.3 0
endloop
endfacet 
facet normal 0 0 0.42
outer loop
vertex 0.8 4.3 0
vertex 1.5 4.3 0
vertex 0.8 4.9 0
endloop
endfacet 
facet normal 0 0 0.42
outer loop
vertex 1.4 2.2 0
vertex 0.8 1.5 0
vertex 1.4 1.5 0
endloop
endfacet 
facet normal 0 -0 0.84
outer loop
vertex 2.8 2.2 0
vertex 2.8 2.8 0
vertex 1.4 2.2 0
endloop
endfacet 
facet normal 0 0 0.42
outer loop
vertex 0.8 1.5 0
vertex 1.4 2.2 0
vertex 0.8 2.2 0
endloop
endfacet 
facet normal 0 -0 0.36
outer loop
vertex 1.4 2.2 0
vertex 2.8 2.8 0
vertex 0.8 2.2 0
endloop
endfacet 
facet normal 0 -0 0.06
outer loop
vertex 0.8 2.2 0
vertex 2.8 2.8 0
vertex 0.7 2.2 0
endloop
endfacet 
facet normal -0 0 1.26
outer loop
vertex 0.7 2.8 0
vertex 0.7 2.2 0
vertex 2.8 2.8 0
endloop
endfacet 
endsolid 
